<svg version="1.1" id="Layer_1" xmlns="http://www.w3.org/2000/svg" xmlns:xlink="http://www.w3.org/1999/xlink" x="0px" y="0px"
	 width="100%" viewBox="0 0 651 265" enable-background="new 0 0 651 265" xml:space="preserve">
<path fill="#FFFFFF" opacity="1.000000" stroke="none" 
	d="
M403.000000,266.000000 
	C268.666656,266.000000 134.833328,266.000000 1.000000,266.000000 
	C1.000000,177.666672 1.000000,89.333336 1.000000,1.000000 
	C218.000000,1.000000 435.000000,1.000000 652.000000,1.000000 
	C652.000000,89.333336 652.000000,177.666672 652.000000,266.000000 
	C569.166687,266.000000 486.333344,266.000000 403.000000,266.000000 
M617.060791,133.089264 
	C616.983643,110.083199 616.906494,87.077126 616.907776,63.360168 
	C614.609375,57.130642 609.685913,55.979572 603.706360,55.981194 
	C418.815033,56.031345 233.923721,56.008171 49.032406,55.996483 
	C48.032997,55.996422 47.026001,55.919327 46.035450,56.013657 
	C40.963909,56.496620 37.187180,58.602833 35.991158,64.978928 
	C36.028778,89.989479 36.066395,115.000038 35.938362,140.933044 
	C36.010830,161.610199 36.083294,182.287338 36.093445,203.675919 
	C38.527889,205.950470 40.735886,208.574417 43.488331,210.358322 
	C44.956360,211.309769 47.365093,210.945160 49.349289,210.945526 
	C234.206848,210.979263 419.064423,210.991272 603.921997,211.002518 
	C612.036255,211.003006 614.201843,209.652069 617.014709,202.072479 
	C616.973450,179.386658 616.932129,156.700821 617.060791,133.089264 
z"/>
<path fill="#FE6703" opacity="1.000000" stroke="none" 
	d="
M36.166489,64.066750 
	C37.187180,58.602833 40.963909,56.496620 46.035450,56.013657 
	C47.026001,55.919327 48.032997,55.996422 49.032406,55.996483 
	C233.923721,56.008171 418.815033,56.031345 603.706360,55.981194 
	C609.685913,55.979572 614.609375,57.130642 616.608521,64.028397 
	C616.207031,70.137085 616.104797,75.577545 615.574951,81.011978 
	C613.439148,80.999306 611.730957,80.992653 610.018433,80.519112 
	C610.011841,77.552788 610.010132,75.053360 610.007202,72.553932 
	C609.994995,62.258980 610.968018,63.014912 600.711548,63.014881 
	C417.586548,63.014381 234.461533,63.013992 51.336517,63.013664 
	C50.336746,63.013664 49.335850,63.045982 48.337402,63.009903 
	C44.531952,62.872398 42.895657,64.735451 42.968369,68.489517 
	C43.061924,73.319832 42.983398,78.153488 42.645481,82.941757 
	C40.539165,81.604843 38.766369,80.311867 36.991261,78.552841 
	C36.714798,73.413452 36.440643,68.740097 36.166489,64.066750 
z"/>
<path fill="#CC5302" opacity="1.000000" stroke="none" 
	d="
M616.847839,202.996552 
	C614.201843,209.652069 612.036255,211.003006 603.921997,211.002518 
	C419.064423,210.991272 234.206848,210.979263 49.349289,210.945526 
	C47.365093,210.945160 44.956360,211.309769 43.488331,210.358322 
	C40.735886,208.574417 38.527889,205.950470 36.387878,203.010635 
	C36.791363,198.560715 36.900421,194.776093 37.381638,190.989227 
	C39.492062,189.662643 41.230328,188.338272 42.976208,187.479446 
	C42.986805,188.611160 42.991867,189.277313 42.992477,189.943481 
	C43.005341,203.980988 43.005241,203.981125 57.071564,203.981125 
	C165.166183,203.981171 273.260803,203.980911 381.355408,203.981247 
	C455.306122,203.981461 529.256836,204.000168 603.207397,203.899338 
	C605.463135,203.896271 607.717224,202.651962 610.290100,202.028030 
	C612.403809,202.378784 614.199463,202.687866 616.208313,202.997437 
	C616.421509,202.997940 616.847839,202.996552 616.847839,202.996552 
z"/>
<path fill="#E54B01" opacity="1.000000" stroke="none" 
	d="
M36.078823,64.522842 
	C36.440643,68.740097 36.714798,73.413452 36.989388,79.019348 
	C36.995373,92.968742 37.000927,105.985588 37.003822,119.470688 
	C36.998749,126.629616 36.996334,133.320297 36.771439,140.010559 
	C36.548965,140.010117 36.104015,140.010590 36.104015,140.010590 
	C36.066395,115.000038 36.028778,89.989479 36.078823,64.522842 
z"/>
<path fill="#E54B01" opacity="1.000000" stroke="none" 
	d="
M616.002563,81.018005 
	C616.104797,75.577545 616.207031,70.137085 616.569214,64.383842 
	C616.906494,87.077126 616.983643,110.083199 616.755554,133.550247 
	C616.450317,134.011230 616.009766,134.009766 616.005432,133.540039 
	C615.999878,125.713844 615.998718,118.357384 615.999146,110.532204 
	C616.001343,100.381660 616.001953,90.699837 616.002563,81.018005 
z"/>
<path fill="#D34A01" opacity="1.000000" stroke="none" 
	d="
M616.009766,134.009766 
	C616.009766,134.009766 616.450317,134.011230 616.670532,134.013123 
	C616.932129,156.700821 616.973450,179.386658 616.931274,202.534515 
	C616.847839,202.996552 616.421509,202.997940 616.208923,202.529144 
	C615.993896,193.371384 615.991394,184.682419 615.990845,175.525543 
	C615.993652,163.372559 615.994385,151.687500 615.997681,139.574249 
	C616.003357,137.433945 616.006531,135.721863 616.009766,134.009766 
z"/>
<path fill="#D34A01" opacity="1.000000" stroke="none" 
	d="
M36.021187,140.471817 
	C36.104015,140.010590 36.548965,140.010117 36.772297,140.476898 
	C36.999367,146.295380 37.003101,151.647079 37.004303,157.467514 
	C37.004337,168.954651 37.006905,179.973053 37.009476,190.991455 
	C36.900421,194.776093 36.791363,198.560715 36.419037,202.654922 
	C36.083294,182.287338 36.010830,161.610199 36.021187,140.471817 
z"/>
<path fill="#D15400" opacity="1.000000" stroke="none" 
	d="
M42.978996,82.985703 
	C42.983398,78.153488 43.061924,73.319832 42.968369,68.489517 
	C42.895657,64.735451 44.531952,62.872398 48.337402,63.009903 
	C49.335850,63.045982 50.336746,63.013664 51.336517,63.013664 
	C234.461533,63.013992 417.586548,63.014381 600.711548,63.014881 
	C610.968018,63.014912 609.994995,62.258980 610.007202,72.553932 
	C610.010132,75.053360 610.011841,77.552788 610.006958,80.964355 
	C609.990723,84.248215 609.981628,86.619934 609.552185,88.984451 
	C606.177612,88.651497 603.219849,88.015839 600.269714,88.049728 
	C579.372986,88.289764 558.478149,88.688416 537.581970,88.987167 
	C531.538513,89.073578 525.477966,88.723946 519.450989,89.049973 
	C502.086304,89.989319 484.665314,89.230782 467.339203,89.217598 
	C450.420715,89.204704 433.418610,89.281448 416.458862,88.984909 
	C401.664215,88.726227 386.872467,88.119446 372.078278,88.078262 
	C360.958435,88.047295 349.835144,88.991318 338.716217,88.935364 
	C312.591980,88.803894 286.469971,88.268867 260.345795,88.053856 
	C255.058701,88.010345 249.763962,88.950798 244.476166,88.915977 
	C237.078476,88.867271 229.685333,88.154076 222.287384,88.097397 
	C219.781540,88.078201 217.244080,89.771141 214.760849,89.673180 
	C207.613266,89.391205 200.486603,88.111916 193.350601,88.102783 
	C179.481476,88.085045 165.612610,88.851097 151.741577,88.930374 
	C143.508774,88.977425 135.274109,88.169487 127.036255,88.065796 
	C122.584915,88.009773 118.129379,88.771187 113.668053,88.902290 
	C108.143997,89.064621 102.611725,88.991562 97.083458,88.954025 
	C91.592857,88.916740 86.092667,88.980392 80.614563,88.677017 
	C68.037651,87.980499 55.452827,86.534569 43.021866,89.553329 
	C43.003891,87.072578 42.991444,85.029144 42.978996,82.985703 
z"/>
<path fill="#ED6000" opacity="1.000000" stroke="none" 
	d="
M42.645477,82.941757 
	C42.991444,85.029144 43.003891,87.072578 43.012890,89.970963 
	C43.012466,92.216721 43.015491,93.607529 43.012810,95.466461 
	C43.005779,101.621887 43.004456,107.309212 43.001362,113.427139 
	C44.023743,119.092850 40.790257,119.368164 37.006481,119.002441 
	C37.000927,105.985588 36.995373,92.968742 36.991692,79.485382 
	C38.766369,80.311867 40.539165,81.604843 42.645477,82.941757 
z"/>
<path fill="#ED6000" opacity="1.000000" stroke="none" 
	d="
M609.972534,88.991661 
	C609.981628,86.619934 609.990723,84.248215 610.011353,81.431244 
	C611.730957,80.992653 613.439148,80.999306 615.574951,81.011978 
	C616.001953,90.699837 616.001343,100.381660 615.614990,110.537888 
	C613.487000,111.341316 611.744690,111.670357 610.001282,111.536263 
	C609.995178,107.047569 609.990295,103.022011 609.988647,98.542473 
	C609.985474,95.056221 609.979004,92.023941 609.972534,88.991661 
z"/>
<path fill="#FB6600" opacity="1.000000" stroke="none" 
	d="
M609.972046,201.986343 
	C607.717224,202.651962 605.463135,203.896271 603.207397,203.899338 
	C529.256836,204.000168 455.306122,203.981461 381.355408,203.981247 
	C273.260803,203.980911 165.166183,203.981171 57.071564,203.981125 
	C43.005241,203.981125 43.005341,203.980988 42.992477,189.943481 
	C42.991867,189.277313 42.986805,188.611160 42.990166,187.061829 
	C43.007488,184.788315 43.018467,183.397934 43.449280,182.015015 
	C46.822601,182.348297 49.776012,182.958618 52.729580,182.959351 
	C234.847031,183.004608 416.964508,182.995819 599.081970,183.027588 
	C603.049377,183.028275 606.966187,183.256760 609.986755,180.474106 
	C609.986389,187.956955 609.979248,194.971649 609.972046,201.986343 
z"/>
<path fill="#D85601" opacity="1.000000" stroke="none" 
	d="
M43.029449,182.007568 
	C43.018467,183.397934 43.007488,184.788315 42.982552,186.596283 
	C41.230328,188.338272 39.492062,189.662643 37.381634,190.989227 
	C37.006905,179.973053 37.004337,168.954651 37.387764,157.462173 
	C39.513817,156.660767 41.253876,156.333435 42.994659,156.443024 
	C42.999546,158.921173 43.003712,160.962433 43.005371,163.471710 
	C43.011730,169.962357 43.020588,175.984970 43.029449,182.007568 
z"/>
<path fill="#D15400" opacity="1.000000" stroke="none" 
	d="
M610.290161,202.028015 
	C609.979248,194.971649 609.986389,187.956955 609.997009,180.045517 
	C610.005981,177.436356 610.011597,175.723938 610.372742,174.047012 
	C612.481812,174.719482 614.235413,175.356476 615.988892,175.993469 
	C615.991394,184.682419 615.993896,193.371384 615.995728,202.528641 
	C614.199463,202.687866 612.403809,202.378784 610.290161,202.028015 
z"/>
<path fill="#E45C00" opacity="1.000000" stroke="none" 
	d="
M42.993938,156.006104 
	C41.253876,156.333435 39.513817,156.660767 37.390297,156.993439 
	C37.003101,151.647079 36.999367,146.295380 36.994774,140.477325 
	C36.996334,133.320297 36.998749,126.629616 37.003822,119.470688 
	C40.790257,119.368164 44.023743,119.092850 43.416519,113.375282 
	C45.943645,112.595306 48.052113,112.055664 50.164330,112.040550 
	C61.771576,111.957512 73.379738,112.002861 84.990814,112.472359 
	C84.999901,120.954414 85.005760,128.968262 85.006882,137.421539 
	C84.997490,139.908127 84.992844,141.955276 84.565834,143.991486 
	C74.867706,143.653687 65.594086,143.156433 56.315674,143.039322 
	C41.837044,142.856598 42.973766,141.807953 42.993938,156.006104 
z"/>
<path fill="#E95E01" opacity="1.000000" stroke="none" 
	d="
M610.002441,111.999390 
	C611.744690,111.670357 613.487000,111.341316 615.613403,111.006599 
	C615.998718,118.357384 615.999878,125.713844 616.005432,133.540039 
	C616.006531,135.721863 616.003357,137.433945 615.586792,139.574005 
	C611.127441,139.809067 609.679565,141.781067 609.945618,145.725815 
	C610.198181,149.470383 609.995300,153.245667 609.570312,157.014755 
	C606.221191,157.348038 603.297119,157.924530 600.367249,157.955154 
	C589.634888,158.067368 578.900513,157.997971 568.080444,157.566895 
	C566.546936,156.759094 565.106873,156.090210 563.651733,156.055450 
	C558.217102,155.925613 552.777466,156.003555 547.189758,156.003555 
	C547.189758,150.344528 547.189758,145.136566 547.189758,139.596085 
	C552.602722,139.596085 557.732727,139.402420 562.838318,139.671097 
	C565.748901,139.824265 566.651733,138.562851 567.018127,135.912003 
	C567.106873,135.163376 566.925171,134.555405 566.625244,133.629883 
	C566.584412,132.874329 566.661682,132.436325 567.157593,131.994446 
	C573.450012,131.327072 579.309143,130.386734 585.201599,130.075272 
	C591.513855,129.741623 597.872314,129.734390 604.182556,130.086823 
	C608.944092,130.352768 610.431763,128.487610 610.060425,123.985664 
	C609.760193,120.345604 609.996704,116.661285 609.996460,112.747292 
	C609.997742,112.497986 610.002441,111.999390 610.002441,111.999390 
z"/>
<path fill="#DF5A00" opacity="1.000000" stroke="none" 
	d="
M609.992676,157.007446 
	C609.995300,153.245667 610.198181,149.470383 609.945618,145.725815 
	C609.679565,141.781067 611.127441,139.809067 615.584290,140.002197 
	C615.994385,151.687500 615.993652,163.372559 615.990906,175.525543 
	C614.235413,175.356476 612.481812,174.719482 610.364624,173.578156 
	C609.998230,167.718369 609.995483,162.362900 609.992676,157.007446 
z"/>
<path fill="#D85601" opacity="1.000000" stroke="none" 
	d="
M609.552185,88.984451 
	C609.979004,92.023941 609.985474,95.056221 609.561340,98.542389 
	C600.680359,98.664185 592.226746,98.024704 583.780701,98.113312 
	C578.571472,98.167961 573.373840,99.332687 568.101440,99.626083 
	C567.695496,97.861916 567.359131,96.470703 566.739380,94.766434 
	C555.300537,94.316154 544.145142,94.157310 532.989197,94.098381 
	C532.357178,94.095047 531.720764,94.911514 531.037354,95.759048 
	C530.893799,98.112328 530.799316,100.052994 530.345337,101.986557 
	C528.111633,101.650299 526.237427,101.321144 524.275269,100.601685 
	C523.800598,98.504982 523.414001,96.798599 522.744995,94.777145 
	C509.848297,94.331970 497.233978,94.189087 484.619263,94.115128 
	C484.074280,94.111931 483.525574,94.743271 482.677856,95.350700 
	C482.197052,98.414536 482.017029,101.206696 481.478271,103.951584 
	C477.986816,102.710281 474.854065,101.516258 471.741486,100.329918 
	C471.164429,101.316490 470.682220,102.140907 470.094116,102.565674 
	C469.532318,99.944893 469.076416,97.723755 468.603058,95.417664 
	C462.337036,95.417664 456.041992,95.417664 449.416199,95.417664 
	C448.887695,97.964218 448.368713,100.464935 447.602051,102.718613 
	C446.519653,101.642883 445.753326,100.202087 444.837494,100.099770 
	C442.040985,99.787323 439.186920,99.990089 436.267456,99.602837 
	C436.159302,98.148384 436.138947,97.083481 436.260895,95.883743 
	C436.146576,95.593506 435.890015,95.438103 435.463989,95.282639 
	C435.294525,95.282562 435.024841,95.077293 434.740417,94.765091 
	C421.847198,94.324844 409.238464,94.184135 396.629364,94.111504 
	C396.081116,94.108353 395.529297,94.730606 394.674866,95.349052 
	C394.194824,100.418114 394.019043,105.199654 393.574158,109.852890 
	C391.923248,110.475990 390.541412,111.227409 389.086060,111.587494 
	C388.308441,103.021965 384.178223,96.198692 376.515015,94.590126 
	C369.132233,93.040436 360.400787,91.680733 354.177063,98.784477 
	C352.167419,91.278839 350.952332,90.737396 344.212494,93.881134 
	C343.191345,94.357437 342.076080,94.632072 340.709778,94.702942 
	C328.821503,94.293259 317.227875,94.166931 305.633911,94.110619 
	C305.085938,94.107948 304.534973,94.727043 303.749634,95.207764 
	C303.070831,95.670830 302.627777,95.982712 302.007812,95.944763 
	C300.333374,94.731094 298.866455,93.180649 297.333588,93.112427 
	C285.439697,92.583069 273.531036,92.098953 261.631989,92.199249 
	C259.076019,92.220802 256.540619,94.675163 253.701691,96.023254 
	C253.211960,96.052620 253.016281,96.067574 252.437210,95.957672 
	C247.802628,95.679237 243.546646,95.367691 239.303955,95.495819 
	C238.375534,95.523857 237.494476,97.119400 236.240570,97.979874 
	C235.278503,97.520462 234.420898,97.208000 234.094925,96.607132 
	C231.153915,91.185593 220.197754,90.248482 215.492523,95.129982 
	C208.993591,95.151573 202.961227,95.151573 197.115265,95.151573 
	C196.299744,96.711876 195.671967,97.912964 195.027130,98.728661 
	C194.611847,94.562393 192.643234,92.101143 188.742111,92.122650 
	C180.655792,92.167229 179.731766,92.884338 178.006439,99.457581 
	C177.640381,103.266670 177.276428,106.622177 176.925598,109.515808 
	C176.932083,106.252327 177.154282,103.424690 176.839600,100.658127 
	C176.624283,98.765182 175.660797,96.957344 174.752060,94.792709 
	C163.523453,94.339279 152.574707,94.189919 141.625427,94.113304 
	C141.078949,94.109474 140.528030,94.736961 139.738586,95.396591 
	C139.374207,101.493065 139.250427,107.263435 138.806702,112.758072 
	C138.322937,107.988945 138.159134,103.495537 137.990463,98.611801 
	C136.325806,91.733665 135.865891,91.472191 129.222351,92.752335 
	C127.953400,92.996849 126.427376,92.542007 125.364952,93.084930 
	C123.440170,94.068535 121.775009,95.560196 119.577377,96.910721 
	C108.087990,96.646027 97.022690,96.310371 85.934692,95.974243 
	C85.911980,95.973778 85.868164,95.962479 85.893608,95.560837 
	C83.588531,94.264595 81.277092,92.658150 78.924278,92.595070 
	C66.898018,92.272675 54.677620,89.737236 43.018520,94.998344 
	C43.015491,93.607529 43.012466,92.216721 43.018417,90.408264 
	C55.452827,86.534569 68.037651,87.980499 80.614563,88.677017 
	C86.092667,88.980392 91.592857,88.916740 97.083458,88.954025 
	C102.611725,88.991562 108.143997,89.064621 113.668053,88.902290 
	C118.129379,88.771187 122.584915,88.009773 127.036255,88.065796 
	C135.274109,88.169487 143.508774,88.977425 151.741577,88.930374 
	C165.612610,88.851097 179.481476,88.085045 193.350601,88.102783 
	C200.486603,88.111916 207.613266,89.391205 214.760849,89.673180 
	C217.244080,89.771141 219.781540,88.078201 222.287384,88.097397 
	C229.685333,88.154076 237.078476,88.867271 244.476166,88.915977 
	C249.763962,88.950798 255.058701,88.010345 260.345795,88.053856 
	C286.469971,88.268867 312.591980,88.803894 338.716217,88.935364 
	C349.835144,88.991318 360.958435,88.047295 372.078278,88.078262 
	C386.872467,88.119446 401.664215,88.726227 416.458862,88.984909 
	C433.418610,89.281448 450.420715,89.204704 467.339203,89.217598 
	C484.665314,89.230782 502.086304,89.989319 519.450989,89.049973 
	C525.477966,88.723946 531.538513,89.073578 537.581970,88.987167 
	C558.478149,88.688416 579.372986,88.289764 600.269714,88.049728 
	C603.219849,88.015839 606.177612,88.651497 609.552185,88.984451 
z"/>
<path fill="#D85601" opacity="1.000000" stroke="none" 
	d="
M43.012810,95.466461 
	C54.677620,89.737236 66.898018,92.272675 78.924278,92.595070 
	C81.277092,92.658150 83.588531,94.264595 85.629349,95.880280 
	C85.222298,101.735611 85.104942,106.869881 84.987587,112.004143 
	C73.379738,112.002861 61.771576,111.957512 50.164330,112.040550 
	C48.052113,112.055664 45.943645,112.595306 43.418289,112.944672 
	C43.004456,107.309212 43.005779,101.621887 43.012810,95.466461 
z"/>
<path fill="#DB5801" opacity="1.000000" stroke="none" 
	d="
M568.171021,99.999031 
	C573.373840,99.332687 578.571472,98.167961 583.780701,98.113312 
	C592.226746,98.024704 600.680359,98.664185 609.558105,98.996361 
	C609.990295,103.022011 609.995178,107.047569 610.001282,111.536263 
	C610.002441,111.999390 609.997742,112.497986 609.581482,112.695389 
	C607.055664,112.595215 604.948242,112.059937 602.836121,112.040604 
	C592.890137,111.949539 582.941528,112.081001 572.997131,111.924622 
	C571.223206,111.896736 569.464783,110.885056 567.837952,109.932869 
	C568.041504,106.358414 568.106262,103.178719 568.171021,99.999031 
z"/>
<path fill="#F46302" opacity="1.000000" stroke="none" 
	d="
M609.570312,157.014755 
	C609.995483,162.362900 609.998230,167.718369 610.009094,173.542679 
	C610.011597,175.723938 610.005981,177.436356 609.990173,179.577347 
	C606.966187,183.256760 603.049377,183.028275 599.081970,183.027588 
	C416.964508,182.995819 234.847031,183.004608 52.729580,182.959351 
	C49.776012,182.958618 46.822601,182.348297 43.449280,182.015015 
	C43.020588,175.984970 43.011730,169.962357 43.378601,163.514282 
	C47.998043,164.059204 52.212856,165.676880 56.491367,165.867920 
	C65.975647,166.291382 75.491898,165.998779 84.997925,166.382111 
	C85.313271,168.172943 85.625793,169.579803 86.290527,171.200134 
	C91.782356,171.271774 96.921982,171.129929 102.340042,170.698029 
	C102.745506,169.273926 103.161659,168.082214 102.948982,167.015900 
	C102.077812,162.647964 104.908966,161.376801 108.168030,161.297607 
	C109.637764,161.261871 111.151649,163.042633 112.753838,164.366821 
	C112.852814,165.497131 112.843452,166.259888 112.636154,167.180054 
	C112.594933,167.887009 112.751640,168.436508 113.078934,169.329590 
	C114.260597,170.310379 115.252419,171.459305 116.286011,171.498199 
	C121.358879,171.689087 126.442848,171.584839 131.381104,171.584839 
	C130.608276,167.891083 129.883408,164.426483 129.411133,160.679291 
	C129.961182,158.687424 130.258621,156.978165 130.584320,155.106522 
	C133.121262,155.321167 135.326935,155.507782 137.390991,155.682404 
	C137.971588,160.166718 138.545273,164.597641 139.235596,169.395355 
	C140.487991,170.383789 141.627136,171.549988 142.759003,171.542969 
	C154.178116,171.472092 165.596024,171.209122 177.303223,170.714157 
	C179.328903,167.315918 175.536575,162.121506 181.272324,160.085556 
	C181.881119,161.995041 182.356430,163.485855 182.865906,165.372894 
	C182.592010,167.601517 182.283951,169.433929 181.948288,171.430573 
	C187.605988,171.430573 192.551956,171.430573 197.727280,171.430573 
	C198.502441,166.607941 199.254044,161.931824 200.011139,157.221619 
	C204.271011,157.221619 208.194901,157.221619 212.433838,157.221619 
	C213.099884,161.932022 213.741745,166.471298 214.424744,171.301575 
	C219.584869,171.301575 224.654816,171.301575 230.183044,171.301575 
	C229.365173,166.096130 228.576721,161.077866 228.187271,156.043472 
	C231.256897,156.017609 233.927490,156.007874 236.693176,156.456238 
	C236.788269,161.660782 236.788269,166.407181 236.788269,171.246750 
	C248.839661,171.246750 260.299927,171.246750 272.174408,171.246750 
	C272.174408,167.250595 272.174408,163.625153 272.525330,159.951263 
	C275.258850,158.993851 277.605743,157.431015 280.030792,157.298477 
	C287.338348,156.899094 294.676331,157.056229 302.003052,157.460541 
	C302.393860,162.300186 302.784027,166.675613 303.535461,171.214203 
	C308.685638,171.457733 313.476227,171.656250 318.263184,171.591293 
	C325.836853,171.488541 333.408112,171.209213 341.276306,170.724121 
	C341.929321,165.792160 342.286438,161.140686 342.591705,157.164505 
	C344.972351,158.181793 347.190216,159.129547 349.408325,160.156219 
	C349.408569,160.235138 349.262512,160.295029 349.210480,160.705261 
	C349.608002,161.708237 350.057587,162.300980 350.716431,163.138382 
	C353.867950,166.179871 356.343903,170.240540 359.841858,171.531036 
	C369.433441,175.069702 382.949829,175.064758 389.021240,159.975616 
	C395.058380,160.163101 400.868622,160.027069 406.761688,160.295746 
	C406.844513,164.232452 406.844513,167.764465 406.844513,171.894226 
	C412.747650,171.560349 417.901978,171.268829 423.339539,170.685699 
	C423.749329,166.928360 423.875885,163.462662 424.405975,160.047836 
	C426.404510,160.398880 428.048126,161.102173 429.584473,160.916687 
	C432.959991,160.509171 434.821503,161.938614 435.830872,165.360809 
	C435.549927,167.591782 435.241913,169.425354 434.933441,171.261414 
	C440.668182,171.261414 445.704956,171.261414 450.729492,171.261414 
	C451.486511,166.359589 452.187592,161.820023 452.896881,157.227371 
	C457.157623,157.227371 461.073761,157.227371 465.295502,157.227371 
	C465.997009,161.956512 466.671722,166.504883 467.386932,171.326340 
	C472.487915,171.326340 477.558929,171.326340 483.157837,171.326340 
	C482.824402,169.081985 482.517487,167.016190 482.452393,164.658783 
	C482.694183,161.796051 482.694183,159.224915 482.694183,155.936401 
	C486.569519,155.936401 490.605194,155.936401 494.723633,156.352646 
	C494.806396,161.537842 494.806396,166.306808 494.806396,171.589676 
	C499.846069,171.589676 504.441101,171.707443 509.017944,171.471878 
	C509.766449,171.433365 510.434753,169.836990 511.405029,168.656128 
	C511.781616,164.900681 511.893341,161.449722 512.391052,158.043213 
	C518.763733,159.057663 524.750488,160.027679 530.817749,161.451355 
	C530.898315,164.996994 530.898315,168.088989 530.898315,171.428955 
	C543.469666,171.428955 555.472412,171.428955 568.166931,171.428955 
	C568.166931,166.822098 568.166931,162.409531 568.166931,157.996948 
	C578.900513,157.997971 589.634888,158.067368 600.367249,157.955154 
	C603.297119,157.924530 606.221191,157.348038 609.570312,157.014755 
z"/>
<path fill="#ED6000" opacity="1.000000" stroke="none" 
	d="
M84.995110,165.998169 
	C75.491898,165.998779 65.975647,166.291382 56.491367,165.867920 
	C52.212856,165.676880 47.998043,164.059204 43.381100,163.046234 
	C43.003712,160.962433 42.999546,158.921173 42.994659,156.443024 
	C42.973766,141.807953 41.837044,142.856598 56.315674,143.039322 
	C65.594086,143.156433 74.867706,143.653687 84.568970,144.459778 
	C84.994675,151.958725 84.994896,158.978455 84.995110,165.998169 
z"/>
<path fill="#D34A01" opacity="1.000000" stroke="none" 
	d="
M84.990814,112.472359 
	C85.104942,106.869881 85.222298,101.735611 85.603912,96.281914 
	C85.868164,95.962479 85.911980,95.973778 85.953934,96.443993 
	C85.940628,110.271751 85.885376,123.629303 85.625488,136.986877 
	C85.420860,136.986923 85.011627,136.982101 85.011627,136.982101 
	C85.005760,128.968262 84.999901,120.954414 84.990814,112.472359 
z"/>
<path fill="#E54B01" opacity="1.000000" stroke="none" 
	d="
M85.006882,137.421539 
	C85.011627,136.982101 85.420860,136.986923 85.698555,137.452011 
	C85.963608,148.940292 85.950966,159.963486 85.938324,170.986679 
	C85.625793,169.579803 85.313271,168.172943 84.997925,166.382111 
	C84.994896,158.978455 84.994675,151.958725 84.991333,144.470734 
	C84.992844,141.955276 84.997490,139.908127 85.006882,137.421539 
z"/>
<path fill="#FEFBF9" opacity="1.000000" stroke="none" 
	d="
M568.080444,157.566895 
	C568.166931,162.409531 568.166931,166.822098 568.166931,171.428955 
	C555.472412,171.428955 543.469666,171.428955 530.898315,171.428955 
	C530.898315,168.088989 530.898315,164.996994 530.895142,160.988525 
	C530.842285,151.049393 530.792480,142.026718 530.822754,132.547821 
	C530.845764,127.484268 530.788818,122.876938 530.809814,117.854439 
	C530.826843,112.290733 530.765930,107.142189 530.704956,101.993652 
	C530.799316,100.052994 530.893799,98.112328 531.500122,95.760345 
	C543.682190,95.259178 555.352478,95.169342 567.022705,95.079498 
	C567.359131,96.470703 567.695496,97.861916 568.101440,99.626083 
	C568.106262,103.178719 568.041504,106.358414 567.454346,109.875343 
	C560.342957,110.486519 553.754028,110.760452 547.053345,111.486862 
	C546.941589,115.844795 546.941589,119.750252 546.941589,124.010391 
	C553.573364,124.010391 559.788452,124.010391 566.152039,124.366470 
	C566.446777,127.147797 566.592896,129.573044 566.739014,131.998306 
	C566.661682,132.436325 566.584412,132.874329 566.512756,133.974976 
	C566.594849,135.109283 566.671265,135.580978 566.747681,136.052658 
	C566.651733,138.562851 565.748901,139.824265 562.838318,139.671097 
	C557.732727,139.402420 552.602722,139.596085 547.189758,139.596085 
	C547.189758,145.136566 547.189758,150.344528 547.189758,156.003555 
	C552.777466,156.003555 558.217102,155.925613 563.651733,156.055450 
	C565.106873,156.090210 566.546936,156.759094 568.080444,157.566895 
z"/>
<path fill="#E05B02" opacity="1.000000" stroke="none" 
	d="
M547.165039,111.034378 
	C553.754028,110.760452 560.342957,110.486519 567.315552,110.270111 
	C569.464783,110.885056 571.223206,111.896736 572.997131,111.924622 
	C582.941528,112.081001 592.890137,111.949539 602.836121,112.040604 
	C604.948242,112.059937 607.055664,112.595215 609.580200,112.944687 
	C609.996704,116.661285 609.760193,120.345604 610.060425,123.985664 
	C610.431763,128.487610 608.944092,130.352768 604.182556,130.086823 
	C597.872314,129.734390 591.513855,129.741623 585.201599,130.075272 
	C579.309143,130.386734 573.450012,131.327072 567.157593,131.994446 
	C566.592896,129.573044 566.446777,127.147797 565.859619,124.067131 
	C561.149231,123.274384 556.864746,122.855545 552.614807,123.083275 
	C548.789795,123.288239 547.690247,121.839684 547.919312,118.224861 
	C548.069580,115.853485 547.443481,113.432915 547.165039,111.034378 
z"/>
<path fill="#E05B02" opacity="1.000000" stroke="none" 
	d="
M567.018127,135.912003 
	C566.671265,135.580978 566.594849,135.109283 566.630981,134.292511 
	C566.925171,134.555405 567.106873,135.163376 567.018127,135.912003 
z"/>
<path fill="#FEFDFB" opacity="1.000000" stroke="none" 
	d="
M86.290527,171.200134 
	C85.950966,159.963486 85.963608,148.940292 85.903183,137.451965 
	C85.885376,123.629303 85.940628,110.271751 85.976639,96.444458 
	C97.022690,96.310371 108.087990,96.646027 119.891083,97.059906 
	C122.678596,98.792664 124.728317,100.447212 126.812439,102.500671 
	C127.482727,109.599602 128.118622,116.299622 128.509186,123.241493 
	C126.193222,127.018898 124.122581,130.554443 122.789276,132.831024 
	C124.693596,137.582916 126.991043,141.728104 127.959984,146.163528 
	C129.006683,150.954926 128.811813,156.017563 129.158524,160.961884 
	C129.883408,164.426483 130.608276,167.891083 131.381104,171.584839 
	C126.442848,171.584839 121.358879,171.689087 116.286011,171.498199 
	C115.252419,171.459305 114.260597,170.310379 113.124191,169.001389 
	C112.943932,167.893951 112.889008,167.458298 112.834091,167.022629 
	C112.843452,166.259888 112.852814,165.497131 112.819611,163.904236 
	C112.764618,158.440231 113.144722,153.763885 112.648643,149.182404 
	C111.885941,142.138367 109.694489,140.683609 102.061607,141.318054 
	C102.061607,151.183167 102.061607,161.085617 102.061607,170.988083 
	C96.921982,171.129929 91.782356,171.271774 86.290527,171.200134 
M111.188332,124.615242 
	C113.811287,120.287788 114.321320,115.407669 111.390335,111.567238 
	C109.746880,109.413864 105.705139,109.090866 102.317230,107.777794 
	C102.317230,115.176743 102.317230,121.047874 102.317230,127.829056 
	C105.460007,126.839897 108.042969,126.026939 111.188332,124.615242 
z"/>
<path fill="#FEFBF9" opacity="1.000000" stroke="none" 
	d="
M482.210602,164.950394 
	C482.517487,167.016190 482.824402,169.081985 483.157837,171.326340 
	C477.558929,171.326340 472.487915,171.326340 467.386932,171.326340 
	C466.671722,166.504883 465.997009,161.956512 465.295502,157.227371 
	C461.073761,157.227371 457.157623,157.227371 452.896881,157.227371 
	C452.187592,161.820023 451.486511,166.359589 450.729492,171.261414 
	C445.704956,171.261414 440.668182,171.261414 434.933441,171.261414 
	C435.241913,169.425354 435.549927,167.591782 435.928986,164.951782 
	C436.362762,162.236450 436.734680,160.329239 437.086731,158.418365 
	C438.401825,151.279892 439.710388,144.140198 441.264282,136.691559 
	C442.628418,130.248215 443.749634,124.114265 444.979645,117.669662 
	C445.127533,116.924683 445.166656,116.490364 445.415222,115.862610 
	C445.684906,115.113380 445.745117,114.557579 445.903381,113.643982 
	C446.269806,111.846436 446.538147,110.406677 446.903290,108.575012 
	C446.971100,107.128548 446.942078,106.073990 446.991364,104.732948 
	C447.329712,103.952858 447.589722,103.459259 447.849731,102.965652 
	C448.368713,100.464935 448.887695,97.964218 449.416199,95.417664 
	C456.041992,95.417664 462.337036,95.417664 468.603058,95.417664 
	C469.076416,97.723755 469.532318,99.944893 470.070801,102.962036 
	C471.837372,112.156342 473.521332,120.554642 475.191895,129.344879 
	C477.522583,141.474686 479.866577,153.212540 482.210602,164.950394 
M455.126709,137.502808 
	C455.009552,139.257278 454.892426,141.011749 454.777893,142.726944 
	C457.829102,142.726944 460.531372,142.726944 463.547058,142.726944 
	C462.200562,133.269424 460.910431,124.207817 459.620270,115.146210 
	C459.220245,115.182007 458.820221,115.217804 458.420227,115.253601 
	C457.366638,122.387787 456.313080,129.521973 455.126709,137.502808 
z"/>
<path fill="#FEFBF9" opacity="1.000000" stroke="none" 
	d="
M227.788269,156.059601 
	C228.576721,161.077866 229.365173,166.096130 230.183044,171.301575 
	C224.654816,171.301575 219.584869,171.301575 214.424744,171.301575 
	C213.741745,166.471298 213.099884,161.932022 212.433838,157.221619 
	C208.194901,157.221619 204.271011,157.221619 200.011139,157.221619 
	C199.254044,161.931824 198.502441,166.607941 197.727280,171.430573 
	C192.551956,171.430573 187.605988,171.430573 181.948288,171.430573 
	C182.283951,169.433929 182.592010,167.601517 182.965393,164.982895 
	C184.705200,154.503738 186.379700,144.810776 188.391083,134.924927 
	C190.097870,127.820160 191.467743,120.908310 192.931702,113.609177 
	C193.629669,110.139023 194.233566,107.056145 194.930267,103.573685 
	C195.030090,101.820755 195.037140,100.467407 195.044189,99.114059 
	C195.671967,97.912964 196.299744,96.711876 197.115265,95.151573 
	C202.961227,95.151573 208.993591,95.151573 215.514099,95.549377 
	C216.905792,100.464676 217.809341,104.982162 218.677368,109.643585 
	C218.641830,109.787514 218.874924,109.971565 218.856293,110.348572 
	C218.961075,111.468018 219.084457,112.210442 219.187820,113.349075 
	C220.167999,118.483902 221.168228,123.222527 222.131897,128.358337 
	C223.992966,137.856888 225.890610,146.958237 227.788269,156.059601 
M204.715729,121.146210 
	C203.690521,128.298569 202.665329,135.450928 201.617020,142.764557 
	C205.013519,142.764557 207.744736,142.764557 210.669235,142.764557 
	C209.308258,133.302841 207.992996,124.159119 206.677750,115.015388 
	C206.212662,115.042725 205.747574,115.070061 205.282486,115.097397 
	C205.142334,116.825386 205.002182,118.553368 204.715729,121.146210 
z"/>
<path fill="#FEF9F6" opacity="1.000000" stroke="none" 
	d="
M177.014282,171.000107 
	C165.596024,171.209122 154.178116,171.472092 142.759003,171.542969 
	C141.627136,171.549988 140.487991,170.383789 139.340149,168.934113 
	C139.259827,157.416580 139.191605,146.727081 139.230942,135.576599 
	C139.267868,127.755020 139.197250,120.394417 139.126648,113.033806 
	C139.250427,107.263435 139.374207,101.493065 140.198547,95.505249 
	C152.276672,95.229027 163.654236,95.170242 175.031799,95.111458 
	C175.660797,96.957344 176.624283,98.765182 176.839600,100.658127 
	C177.154282,103.424690 176.932083,106.252327 176.562851,109.566956 
	C175.460953,110.158661 174.734909,110.237350 173.677292,110.232483 
	C172.896591,110.204407 172.447479,110.259895 171.546188,110.236122 
	C167.729965,110.210175 164.365936,110.263481 160.610413,110.231659 
	C158.757721,110.428185 157.296524,110.709831 155.662079,111.399925 
	C155.558807,113.574036 155.628754,115.339699 155.575012,117.495384 
	C155.534424,119.235443 155.617538,120.585480 155.598953,122.305557 
	C155.996811,123.071098 156.496353,123.466621 157.459930,123.930756 
	C163.525177,123.999367 169.126373,123.999367 175.178635,123.999367 
	C175.178635,127.730614 175.178635,130.863739 175.108459,134.422180 
	C174.963547,136.294708 174.888809,137.741913 174.789841,139.658173 
	C168.288071,139.658173 162.056015,139.658173 155.667114,139.658173 
	C155.667114,145.352081 155.667114,150.555161 155.667114,156.203110 
	C162.886902,156.203110 169.772232,156.203110 177.014282,156.203110 
	C177.014282,161.434113 177.014282,166.217117 177.014282,171.000107 
z"/>
<path fill="#FEF9F6" opacity="1.000000" stroke="none" 
	d="
M340.980408,171.004608 
	C333.408112,171.209213 325.836853,171.488541 318.263184,171.591293 
	C313.476227,171.656250 308.685638,171.457733 303.571686,170.742584 
	C303.179108,150.405487 303.111542,130.703201 303.150452,110.547653 
	C303.185638,106.063026 303.114380,102.031670 303.113464,97.745041 
	C302.850800,97.091377 302.517761,96.692986 302.184753,96.294586 
	C302.627777,95.982712 303.070831,95.670830 304.206451,95.328461 
	C313.330658,95.321419 321.763428,95.270325 330.193298,95.403458 
	C333.776978,95.460052 337.354523,95.902443 340.924011,96.573212 
	C340.973297,98.317612 341.033447,99.658318 341.007812,101.437820 
	C340.931061,104.542435 340.940002,107.208229 340.625610,109.964478 
	C339.867462,110.156044 339.432648,110.257164 338.536804,110.274239 
	C332.369537,110.240952 326.663269,110.291710 320.682861,110.284386 
	C320.202301,110.488716 319.995941,110.751122 319.602814,111.336472 
	C319.460724,112.395790 319.505341,113.132164 319.432129,114.248245 
	C319.545166,117.662582 319.776001,120.697205 320.243652,123.845734 
	C320.652374,123.925606 320.824249,123.891563 321.459229,123.932732 
	C327.535156,124.007942 333.147980,124.007942 338.849701,124.007942 
	C338.969818,126.710274 339.065094,128.853867 339.091797,131.444000 
	C339.023224,134.317657 339.023224,136.744781 339.023224,139.645447 
	C332.222931,139.645447 325.988464,139.645447 319.591003,139.645447 
	C319.591003,145.333771 319.591003,150.534546 319.591003,156.193817 
	C326.811127,156.193817 333.700104,156.193817 340.980408,156.193817 
	C340.980408,161.436249 340.980408,166.220428 340.980408,171.004608 
z"/>
<path fill="#FEFCFB" opacity="1.000000" stroke="none" 
	d="
M388.794342,159.652100 
	C382.949829,175.064758 369.433441,175.069702 359.841858,171.531036 
	C356.343903,170.240540 353.867950,166.179871 350.587402,162.790161 
	C349.920197,161.563217 349.591339,160.929123 349.262512,160.295029 
	C349.262512,160.295029 349.408569,160.235138 349.335449,159.710632 
	C348.868378,154.854294 348.474426,150.522476 348.079041,146.175110 
	C353.700714,146.175110 358.278992,146.175110 362.689789,146.175110 
	C363.136169,149.282272 363.006134,152.293457 364.107025,154.753815 
	C364.931671,156.596741 367.159088,158.569199 369.087189,158.988525 
	C372.192902,159.664001 373.685333,157.240448 374.188538,154.242798 
	C375.042694,149.154388 372.575653,145.646881 368.900848,142.688705 
	C364.004486,138.747208 359.073547,134.848663 354.014191,130.605606 
	C352.270660,126.192680 350.670380,122.105797 349.127441,117.573586 
	C349.136963,114.455429 349.089172,111.782608 349.368958,108.936356 
	C350.182861,106.862839 350.669220,104.962761 351.442688,102.938232 
	C352.185425,101.898415 352.641052,100.983055 353.058105,100.045586 
	C353.019531,100.023476 353.048828,100.107430 353.311493,100.030319 
	C353.798096,99.684059 354.022064,99.414909 354.231506,99.153351 
	C354.217041,99.160950 354.254883,99.179771 354.254883,99.179771 
	C360.400787,91.680733 369.132233,93.040436 376.515015,94.590126 
	C384.178223,96.198692 388.308441,103.021965 389.025391,112.033028 
	C389.038269,114.462898 389.038269,116.055908 389.038269,117.811203 
	C384.108398,117.811203 379.686096,117.811203 375.302765,117.811203 
	C374.728027,115.078804 374.556793,112.357178 373.511566,110.027702 
	C372.907104,108.680573 370.850311,107.117493 369.526093,107.185623 
	C367.952698,107.266586 365.305328,108.863174 365.172394,110.035378 
	C364.866608,112.731705 365.016235,116.090385 366.429169,118.219048 
	C368.267090,120.987968 371.582611,122.744560 374.130005,125.080994 
	C378.794739,129.359467 383.362549,133.743546 387.983215,138.476135 
	C390.629120,145.705505 390.156799,152.661697 388.794342,159.652100 
z"/>
<path fill="#FEFCFA" opacity="1.000000" stroke="none" 
	d="
M511.140137,168.960648 
	C510.434753,169.836990 509.766449,171.433365 509.017944,171.471878 
	C504.441101,171.707443 499.846069,171.589676 494.806396,171.589676 
	C494.806396,166.306808 494.806396,161.537842 494.809021,155.961487 
	C494.753662,145.099396 494.695709,135.044724 494.725769,124.537361 
	C494.762878,120.387772 494.711945,116.690857 494.745483,112.756287 
	C494.811371,112.351509 494.792786,112.184387 494.670105,111.602554 
	C490.536224,111.187843 486.506439,111.187843 482.318176,111.187843 
	C482.114532,109.458565 481.968689,108.219917 481.880615,106.741623 
	C481.938416,106.501976 481.825317,106.022095 481.900330,105.688065 
	C481.929230,104.902306 481.883118,104.450584 481.837006,103.998863 
	C482.017029,101.206696 482.197052,98.414536 483.135681,95.469070 
	C496.938599,95.241257 509.982971,95.166733 523.027344,95.092216 
	C523.414001,96.798599 523.800598,98.504982 524.185242,101.056610 
	C524.183228,104.498901 524.183228,107.095947 524.183228,110.341217 
	C520.128357,110.341217 516.545288,110.341217 512.681335,110.251152 
	C511.999878,110.442139 511.599243,110.723183 511.095398,111.462456 
	C511.041534,130.934006 511.090851,149.947327 511.140137,168.960648 
z"/>
<path fill="#FEFCFA" opacity="1.000000" stroke="none" 
	d="
M423.056305,170.977310 
	C417.901978,171.268829 412.747650,171.560349 406.844513,171.894226 
	C406.844513,167.764465 406.844513,164.232452 406.839233,159.903656 
	C406.786072,150.735367 406.738159,142.363861 406.773743,133.531158 
	C406.857178,125.641266 406.857178,118.212578 406.857178,110.162476 
	C404.566895,110.162476 402.625458,110.185791 400.684845,110.156410 
	C398.403931,110.121880 396.123749,110.041626 393.843262,109.981201 
	C394.019043,105.199654 394.194824,100.418114 395.132355,95.469864 
	C408.937683,95.227859 421.981262,95.152573 435.024841,95.077293 
	C435.024841,95.077293 435.294525,95.282562 435.525513,95.505920 
	C435.756531,95.729271 436.118591,96.018585 436.118591,96.018585 
	C436.138947,97.083481 436.159302,98.148384 436.178955,100.043701 
	C436.178253,103.828003 436.178253,106.781883 436.178253,109.902252 
	C434.571991,110.078651 433.290588,110.219368 431.580994,110.270813 
	C429.115082,110.199707 427.077393,110.217865 424.727875,110.135574 
	C423.979156,110.369118 423.542236,110.703110 423.041779,111.499626 
	C423.004272,131.633865 423.030304,151.305588 423.056305,170.977310 
z"/>
<path fill="#FEFBF9" opacity="1.000000" stroke="none" 
	d="
M272.174408,159.999725 
	C272.174408,163.625153 272.174408,167.250595 272.174408,171.246750 
	C260.299927,171.246750 248.839661,171.246750 236.788269,171.246750 
	C236.788269,166.407181 236.788269,161.660782 236.783691,155.995804 
	C236.719360,145.052612 236.659576,135.027985 236.691162,124.544327 
	C236.720764,119.053223 236.658981,114.021156 236.689148,108.539886 
	C236.717926,104.724815 236.654770,101.358940 236.591599,97.993065 
	C237.494476,97.119400 238.375534,95.523857 239.303955,95.495819 
	C243.546646,95.367691 247.802628,95.679237 252.468536,96.419250 
	C252.883224,116.585571 252.883224,136.165451 252.883224,156.106506 
	C259.690491,156.106506 265.827515,156.106506 271.980530,156.496948 
	C272.055786,157.924820 272.115112,158.962280 272.174408,159.999725 
z"/>
<path fill="#E05B02" opacity="1.000000" stroke="none" 
	d="
M393.574158,109.852890 
	C396.123749,110.041626 398.403931,110.121880 400.684845,110.156410 
	C402.625458,110.185791 404.566895,110.162476 406.857178,110.162476 
	C406.857178,118.212578 406.857178,125.641266 406.396179,133.522064 
	C405.045898,133.597198 404.141632,133.251862 403.269745,132.838242 
	C396.727203,129.734406 389.673676,132.147278 387.970795,138.083588 
	C383.362549,133.743546 378.794739,129.359467 374.130005,125.080994 
	C371.582611,122.744560 368.267090,120.987968 366.429169,118.219048 
	C365.016235,116.090385 364.866608,112.731705 365.172394,110.035378 
	C365.305328,108.863174 367.952698,107.266586 369.526093,107.185623 
	C370.850311,107.117493 372.907104,108.680573 373.511566,110.027702 
	C374.556793,112.357178 374.728027,115.078804 375.302765,117.811203 
	C379.686096,117.811203 384.108398,117.811203 389.038269,117.811203 
	C389.038269,116.055908 389.038269,114.462898 389.098938,112.424362 
	C390.541412,111.227409 391.923248,110.475990 393.574158,109.852890 
z"/>
<path fill="#DB5801" opacity="1.000000" stroke="none" 
	d="
M494.660980,112.993942 
	C494.711945,116.690857 494.762878,120.387772 494.375336,124.525856 
	C485.079010,119.043793 478.073761,120.534447 475.205261,128.952942 
	C473.521332,120.554642 471.837372,112.156342 470.176697,103.361679 
	C470.682220,102.140907 471.164429,101.316490 471.741486,100.329918 
	C474.854065,101.516258 477.986816,102.710281 481.478271,103.951584 
	C481.883118,104.450584 481.929230,104.902306 481.757874,105.778320 
	C481.634521,106.462166 481.728668,106.721710 481.822815,106.981262 
	C481.968689,108.219917 482.114532,109.458565 482.318176,111.187843 
	C486.506439,111.187843 490.536224,111.187843 494.445709,111.613785 
	C494.079742,112.173698 493.834015,112.307671 493.588318,112.441635 
	C493.945862,112.625732 494.303436,112.809837 494.660980,112.993942 
z"/>
<path fill="#D85601" opacity="1.000000" stroke="none" 
	d="
M302.007812,95.944763 
	C302.517761,96.692986 302.850800,97.091377 302.675873,97.745117 
	C286.113770,98.001854 270.059631,98.003242 254.002686,97.671936 
	C253.998505,96.895790 253.997116,96.452316 253.995728,96.008850 
	C256.540619,94.675163 259.076019,92.220802 261.631989,92.199249 
	C273.531036,92.098953 285.439697,92.583069 297.333588,93.112427 
	C298.866455,93.180649 300.333374,94.731094 302.007812,95.944763 
z"/>
<path fill="#D85601" opacity="1.000000" stroke="none" 
	d="
M236.240570,97.979874 
	C236.654770,101.358940 236.717926,104.724815 236.332092,108.532486 
	C234.761398,108.341759 233.608307,107.758530 232.523575,107.067963 
	C228.330353,104.398392 220.766846,105.714561 218.712906,109.499657 
	C217.809341,104.982162 216.905792,100.464676 215.980667,95.527786 
	C220.197754,90.248482 231.153915,91.185593 234.094925,96.607132 
	C234.420898,97.208000 235.278503,97.520462 236.240570,97.979874 
z"/>
<path fill="#DB5801" opacity="1.000000" stroke="none" 
	d="
M138.806686,112.758072 
	C139.197250,120.394417 139.267868,127.755020 138.912476,135.300262 
	C138.325943,134.701416 138.053009,133.922333 138.022171,133.133804 
	C137.671875,124.175117 137.681778,124.174728 128.754517,122.999641 
	C128.118622,116.299622 127.482727,109.599602 127.134514,102.291656 
	C130.023605,97.150757 134.407059,99.644073 137.995331,99.002136 
	C138.159134,103.495537 138.322937,107.988945 138.806686,112.758072 
z"/>
<path fill="#DB5801" opacity="1.000000" stroke="none" 
	d="
M174.008881,110.316040 
	C174.734909,110.237350 175.460953,110.158661 176.549728,110.028824 
	C177.276428,106.622177 177.640381,103.266670 178.372986,99.494972 
	C181.199936,99.391548 183.650467,99.809937 186.118393,99.991516 
	C189.547745,100.243843 193.795624,98.543076 194.837463,103.973267 
	C194.233566,107.056145 193.629669,110.139023 192.562897,113.610443 
	C187.256714,113.665894 182.392456,113.498291 177.584152,112.889023 
	C176.304260,112.726845 175.195969,111.210594 174.008881,110.316040 
z"/>
<path fill="#DB5801" opacity="1.000000" stroke="none" 
	d="
M512.962158,110.341217 
	C516.545288,110.341217 520.128357,110.341217 524.183228,110.341217 
	C524.183228,107.095947 524.183228,104.498901 524.273193,101.446922 
	C526.237427,101.321144 528.111633,101.650299 530.345398,101.986557 
	C530.765930,107.142189 530.826843,112.290733 530.405762,117.753273 
	C527.062439,116.746017 524.309021,114.796814 521.309204,114.281006 
	C518.339600,113.770378 515.121399,114.705917 512.008728,114.612335 
	C511.995636,113.164772 511.986023,112.112007 512.170166,110.982162 
	C512.622009,110.779297 512.821411,110.591339 512.962158,110.341217 
z"/>
<path fill="#DB5801" opacity="1.000000" stroke="none" 
	d="
M432.009216,110.360077 
	C433.290588,110.219368 434.571991,110.078651 436.178253,109.902252 
	C436.178253,106.781883 436.178253,103.828003 436.266754,100.433258 
	C439.186920,99.990089 442.040985,99.787323 444.837494,100.099770 
	C445.753326,100.202087 446.519653,101.642883 447.602051,102.718613 
	C447.589722,103.459259 447.329712,103.952858 446.748749,104.942810 
	C446.554047,106.615089 446.680267,107.791008 446.806488,108.966927 
	C446.538147,110.406677 446.269806,111.846436 445.504700,113.632004 
	C441.372284,113.478004 437.716553,113.083405 434.116425,112.397186 
	C433.313751,112.244186 432.706482,111.066162 432.009216,110.360077 
z"/>
<path fill="#D85601" opacity="1.000000" stroke="none" 
	d="
M194.930267,103.573685 
	C193.795624,98.543076 189.547745,100.243843 186.118393,99.991516 
	C183.650467,99.809937 181.199936,99.391548 178.375092,99.041382 
	C179.731766,92.884338 180.655792,92.167229 188.742111,92.122650 
	C192.643234,92.101143 194.611847,94.562393 195.027130,98.728661 
	C195.037140,100.467407 195.030090,101.820755 194.930267,103.573685 
z"/>
<path fill="#D85601" opacity="1.000000" stroke="none" 
	d="
M137.990463,98.611801 
	C134.407059,99.644073 130.023605,97.150757 127.100113,101.892746 
	C124.728317,100.447212 122.678596,98.792664 120.315170,96.988937 
	C121.775009,95.560196 123.440170,94.068535 125.364952,93.084930 
	C126.427376,92.542007 127.953400,92.996849 129.222351,92.752335 
	C135.865891,91.472191 136.325806,91.733665 137.990463,98.611801 
z"/>
<path fill="#D85601" opacity="1.000000" stroke="none" 
	d="
M351.155579,103.062683 
	C350.669220,104.962761 350.182861,106.862839 349.356781,108.544624 
	C348.537994,103.545876 345.443512,101.593651 341.093567,100.999016 
	C341.033447,99.658318 340.973297,98.317612 340.943176,96.280952 
	C340.983612,95.389992 340.993988,95.195000 341.004364,95.000000 
	C342.076080,94.632072 343.191345,94.357437 344.212494,93.881134 
	C350.952332,90.737396 352.167419,91.278839 354.177063,98.784477 
	C354.254883,99.179771 354.217041,99.160950 353.961609,99.211563 
	C353.487061,99.543922 353.267944,99.825676 353.048828,100.107430 
	C353.048828,100.107430 353.019531,100.023476 352.687927,100.026703 
	C351.373962,100.354614 350.391602,100.679306 349.409271,101.003998 
	C349.991364,101.690231 350.573456,102.376457 351.155579,103.062683 
z"/>
<path fill="#E54B01" opacity="1.000000" stroke="none" 
	d="
M253.701691,96.023262 
	C253.997116,96.452316 253.998505,96.895790 254.000000,98.134636 
	C254.003204,102.954971 254.006287,106.979927 254.006348,111.472313 
	C254.005646,117.627831 254.007965,123.315926 254.008240,129.472412 
	C254.004013,135.101578 254.001282,140.262344 253.999725,145.423096 
	C253.996857,155.003220 253.998367,154.918533 263.361084,155.053024 
	C266.233368,155.094284 269.096954,155.738434 271.964539,156.106506 
	C265.827515,156.106506 259.690491,156.106506 252.883224,156.106506 
	C252.883224,136.165451 252.883224,116.585571 252.851898,96.544113 
	C253.016281,96.067574 253.211960,96.052620 253.701691,96.023262 
z"/>
<path fill="#D34A01" opacity="1.000000" stroke="none" 
	d="
M434.740417,94.765091 
	C421.981262,95.152573 408.937683,95.227859 395.436615,95.182343 
	C395.529297,94.730606 396.081116,94.108353 396.629364,94.111504 
	C409.238464,94.184135 421.847198,94.324844 434.740417,94.765091 
z"/>
<path fill="#D34A01" opacity="1.000000" stroke="none" 
	d="
M522.744995,94.777145 
	C509.982971,95.166733 496.938599,95.241257 483.436401,95.197403 
	C483.525574,94.743271 484.074280,94.111931 484.619263,94.115128 
	C497.233978,94.189087 509.848297,94.331970 522.744995,94.777145 
z"/>
<path fill="#D34A01" opacity="1.000000" stroke="none" 
	d="
M340.709778,94.702942 
	C340.993988,95.195000 340.983612,95.389992 340.954041,95.877243 
	C337.354523,95.902443 333.776978,95.460052 330.193298,95.403458 
	C321.763428,95.270325 313.330658,95.321419 304.442200,95.177269 
	C304.534973,94.727043 305.085938,94.107948 305.633911,94.110619 
	C317.227875,94.166931 328.821503,94.293259 340.709778,94.702942 
z"/>
<path fill="#D34A01" opacity="1.000000" stroke="none" 
	d="
M566.739380,94.766449 
	C555.352478,95.169342 543.682190,95.259178 531.549194,95.347717 
	C531.720764,94.911514 532.357178,94.095047 532.989197,94.098381 
	C544.145142,94.157310 555.300537,94.316154 566.739380,94.766449 
z"/>
<path fill="#D34A01" opacity="1.000000" stroke="none" 
	d="
M174.752060,94.792709 
	C163.654236,95.170242 152.276672,95.229027 140.439148,95.179153 
	C140.528030,94.736961 141.078949,94.109474 141.625427,94.113304 
	C152.574707,94.189919 163.523453,94.339279 174.752060,94.792709 
z"/>
<path fill="#E5843F" opacity="1.000000" stroke="none" 
	d="
M436.260864,95.883743 
	C436.118591,96.018585 435.756531,95.729271 435.694977,95.505989 
	C435.890015,95.438103 436.146576,95.593506 436.260864,95.883743 
z"/>
<path fill="#E95E00" opacity="1.000000" stroke="none" 
	d="
M271.980530,156.496948 
	C269.096954,155.738434 266.233368,155.094284 263.361084,155.053024 
	C253.998367,154.918533 253.996857,155.003220 253.999725,145.423096 
	C254.001282,140.262344 254.004013,135.101578 254.475739,129.470917 
	C270.629364,129.001694 286.313477,129.002365 301.998291,129.471512 
	C302.000153,138.958755 302.001312,147.977554 302.002441,156.996338 
	C294.676331,157.056229 287.338348,156.899094 280.030792,157.298477 
	C277.605743,157.431015 275.258850,158.993851 272.525330,159.951263 
	C272.115112,158.962280 272.055786,157.924820 271.980530,156.496948 
z"/>
<path fill="#EA6007" opacity="1.000000" stroke="none" 
	d="
M354.157440,130.931671 
	C359.073547,134.848663 364.004486,138.747208 368.900848,142.688705 
	C372.575653,145.646881 375.042694,149.154388 374.188538,154.242798 
	C373.685333,157.240448 372.192902,159.664001 369.087189,158.988525 
	C367.159088,158.569199 364.931671,156.596741 364.107025,154.753815 
	C363.006134,152.293457 363.136169,149.282272 362.689789,146.175110 
	C358.278992,146.175110 353.700714,146.175110 348.079041,146.175110 
	C348.474426,150.522476 348.868378,154.854294 349.335205,159.631699 
	C347.190216,159.129547 344.972351,158.181793 342.591705,157.164505 
	C342.286438,161.140686 341.929321,165.792160 341.276306,170.724121 
	C340.980408,166.220428 340.980408,161.436249 340.980408,156.193817 
	C333.700104,156.193817 326.811127,156.193817 319.591003,156.193817 
	C319.591003,150.534546 319.591003,145.333771 319.591003,139.645447 
	C325.988464,139.645447 332.222931,139.645447 339.023224,139.645447 
	C339.023224,136.744781 339.023224,134.317657 339.448395,131.399475 
	C341.940063,130.998322 344.006714,131.163681 346.073029,131.159409 
	C348.767975,131.153839 351.462646,131.013824 354.157440,130.931671 
z"/>
<path fill="#EA6007" opacity="1.000000" stroke="none" 
	d="
M177.303223,170.714157 
	C177.014282,166.217117 177.014282,161.434113 177.014282,156.203110 
	C169.772232,156.203110 162.886902,156.203110 155.667114,156.203110 
	C155.667114,150.555161 155.667114,145.352081 155.667114,139.658173 
	C162.056015,139.658173 168.288071,139.658173 174.789841,139.658173 
	C174.888809,137.741913 174.963547,136.294708 175.508514,134.423218 
	C180.003891,134.371918 184.029037,134.744873 188.054184,135.117828 
	C186.379700,144.810776 184.705200,154.503738 182.931229,164.586685 
	C182.356430,163.485855 181.881119,161.995041 181.272324,160.085556 
	C175.536575,162.121506 179.328903,167.315918 177.303223,170.714157 
z"/>
<path fill="#E65C02" opacity="1.000000" stroke="none" 
	d="
M475.191895,129.344879 
	C478.073761,120.534447 485.079010,119.043793 494.287292,124.978531 
	C494.695709,135.044724 494.753662,145.099396 494.726257,155.545242 
	C490.605194,155.936401 486.569519,155.936401 482.694183,155.936401 
	C482.694183,159.224915 482.694183,161.796051 482.452393,164.658783 
	C479.866577,153.212540 477.522583,141.474686 475.191895,129.344879 
z"/>
<path fill="#E95E00" opacity="1.000000" stroke="none" 
	d="
M530.742737,133.004059 
	C530.792480,142.026718 530.842285,151.049393 530.814575,160.534882 
	C524.750488,160.027679 518.763733,159.057663 512.388123,157.574707 
	C512.004395,148.041595 512.009521,139.021408 512.434692,130.010529 
	C518.817383,131.014557 524.780029,132.009308 530.742737,133.004059 
z"/>
<path fill="#E95E01" opacity="1.000000" stroke="none" 
	d="
M387.983215,138.476135 
	C389.673676,132.147278 396.727203,129.734406 403.269745,132.838242 
	C404.141632,133.251862 405.045898,133.597198 406.312744,133.983261 
	C406.738159,142.363861 406.786072,150.735367 406.756409,159.498962 
	C400.868622,160.027069 395.058380,160.163101 389.021240,159.975616 
	C390.156799,152.661697 390.629120,145.705505 387.983215,138.476135 
z"/>
<path fill="#E65C02" opacity="1.000000" stroke="none" 
	d="
M236.599792,125.003357 
	C236.659576,135.027985 236.719360,145.052612 236.688614,155.537689 
	C233.927490,156.007874 231.256897,156.017609 228.187286,156.043472 
	C225.890610,146.958237 223.992966,137.856888 222.376984,128.095825 
	C224.047729,122.957870 227.394577,121.670563 232.082138,123.678734 
	C233.514328,124.292282 235.089890,124.571198 236.599792,125.003357 
z"/>
<path fill="#E65C02" opacity="1.000000" stroke="none" 
	d="
M128.509186,123.241493 
	C137.681778,124.174728 137.671875,124.175117 138.022171,133.133804 
	C138.053009,133.922333 138.325943,134.701416 138.804901,135.761230 
	C139.191605,146.727081 139.259827,157.416580 139.223511,168.567337 
	C138.545273,164.597641 137.971588,160.166718 137.390991,155.682404 
	C135.326935,155.507782 133.121262,155.321167 130.584320,155.106522 
	C130.258621,156.978165 129.961182,158.687424 129.411133,160.679291 
	C128.811813,156.017563 129.006683,150.954926 127.959984,146.163528 
	C126.991043,141.728104 124.693596,137.582916 122.789276,132.831024 
	C124.122581,130.554443 126.193222,127.018898 128.509186,123.241493 
z"/>
<path fill="#E95E01" opacity="1.000000" stroke="none" 
	d="
M441.021393,137.000961 
	C439.710388,144.140198 438.401825,151.279892 437.086731,158.418365 
	C436.734680,160.329239 436.362762,162.236450 435.901886,164.554382 
	C434.821503,161.938614 432.959991,160.509171 429.584473,160.916687 
	C428.048126,161.102173 426.404510,160.398880 424.403564,159.579529 
	C424.001221,150.707962 424.004883,142.355606 424.421143,134.054688 
	C430.229614,135.071075 435.625488,136.036026 441.021393,137.000961 
z"/>
<path fill="#EA6007" opacity="1.000000" stroke="none" 
	d="
M102.340042,170.698029 
	C102.061607,161.085617 102.061607,151.183167 102.061607,141.318054 
	C109.694489,140.683609 111.885941,142.138367 112.648643,149.182404 
	C113.144722,153.763885 112.764618,158.440231 112.711273,163.536652 
	C111.151649,163.042633 109.637764,161.261871 108.168030,161.297607 
	C104.908966,161.376801 102.077812,162.647964 102.948982,167.015900 
	C103.161659,168.082214 102.745506,169.273926 102.340042,170.698029 
z"/>
<path fill="#E54B01" opacity="1.000000" stroke="none" 
	d="
M424.008545,134.003235 
	C424.004883,142.355606 424.001221,150.707962 424.000000,159.528641 
	C423.875885,163.462662 423.749329,166.928360 423.339539,170.685699 
	C423.030304,151.305588 423.004272,131.633865 423.265991,111.482925 
	C423.553711,111.003716 424.003113,111.019684 424.003418,111.487076 
	C424.005310,119.304054 424.006927,126.653641 424.008545,134.003235 
z"/>
<path fill="#E54B01" opacity="1.000000" stroke="none" 
	d="
M302.003052,157.460541 
	C302.001312,147.977554 302.000153,138.958755 301.999756,129.003235 
	C302.001923,122.379196 302.003387,116.691917 302.264648,111.004173 
	C302.697571,111.002785 302.870758,111.001854 303.043976,111.000916 
	C303.111542,130.703201 303.179108,150.405487 303.210449,170.579407 
	C302.784027,166.675613 302.393860,162.300186 302.003052,157.460541 
z"/>
<path fill="#E54B01" opacity="1.000000" stroke="none" 
	d="
M512.014648,130.001236 
	C512.009521,139.021408 512.004395,148.041595 512.002136,157.530273 
	C511.893341,161.449722 511.781616,164.900681 511.405029,168.656128 
	C511.090851,149.947327 511.041534,130.934006 511.290100,111.472794 
	C511.587982,111.024895 511.976440,111.059242 511.976440,111.059242 
	C511.986023,112.112007 511.995636,113.164772 512.005493,115.077637 
	C512.008667,120.625572 512.011658,125.313400 512.014648,130.001236 
z"/>
<path fill="#EA6007" opacity="1.000000" stroke="none" 
	d="
M349.210480,160.705261 
	C349.591339,160.929123 349.920197,161.563217 350.378113,162.545517 
	C350.057587,162.300980 349.608002,161.708237 349.210480,160.705261 
z"/>
<path fill="#EA6007" opacity="1.000000" stroke="none" 
	d="
M112.636154,167.180054 
	C112.889008,167.458298 112.943932,167.893951 112.953598,168.657822 
	C112.751640,168.436508 112.594933,167.887009 112.636154,167.180054 
z"/>
<path fill="#E15D05" opacity="1.000000" stroke="none" 
	d="
M512.434692,130.010529 
	C512.011658,125.313400 512.008667,120.625572 512.008972,115.472435 
	C515.121399,114.705917 518.339600,113.770378 521.309204,114.281006 
	C524.309021,114.796814 527.062439,116.746017 530.327759,118.168442 
	C530.788818,122.876938 530.845764,127.484268 530.822754,132.547821 
	C524.780029,132.009308 518.817383,131.014557 512.434692,130.010529 
z"/>
<path fill="#E54B01" opacity="1.000000" stroke="none" 
	d="
M547.053345,111.486862 
	C547.443481,113.432915 548.069580,115.853485 547.919312,118.224861 
	C547.690247,121.839684 548.789795,123.288239 552.614807,123.083275 
	C556.864746,122.855545 561.149231,123.274384 565.711060,123.711060 
	C559.788452,124.010391 553.573364,124.010391 546.941589,124.010391 
	C546.941589,119.750252 546.941589,115.844795 547.053345,111.486862 
z"/>
<path fill="#E05B02" opacity="1.000000" stroke="none" 
	d="
M110.907127,124.914612 
	C108.042969,126.026939 105.460007,126.839897 102.317230,127.829056 
	C102.317230,121.047874 102.317230,115.176743 102.317230,107.777794 
	C105.705139,109.090866 109.746880,109.413864 111.390335,111.567238 
	C114.321320,115.407669 113.811287,120.287788 110.907127,124.914612 
z"/>
<path fill="#E05B02" opacity="1.000000" stroke="none" 
	d="
M424.421143,134.054688 
	C424.006927,126.653641 424.005310,119.304054 424.207458,111.398758 
	C424.694702,110.717346 424.904205,110.514999 425.039673,110.236023 
	C427.077393,110.217865 429.115082,110.199707 431.580994,110.270813 
	C432.706482,111.066162 433.313751,112.244186 434.116425,112.397186 
	C437.716553,113.083405 441.372284,113.478004 445.406616,113.989807 
	C445.745117,114.557579 445.684906,115.113380 445.162231,115.958359 
	C444.756775,116.825142 444.813843,117.402733 444.870880,117.980324 
	C443.749634,124.114265 442.628418,130.248215 441.264282,136.691559 
	C435.625488,136.036026 430.229614,135.071075 424.421143,134.054688 
z"/>
<path fill="#E15D05" opacity="1.000000" stroke="none" 
	d="
M455.193115,137.079483 
	C456.313080,129.521973 457.366638,122.387787 458.420227,115.253601 
	C458.820221,115.217804 459.220245,115.182007 459.620270,115.146210 
	C460.910431,124.207817 462.200562,133.269424 463.547058,142.726944 
	C460.531372,142.726944 457.829102,142.726944 454.777893,142.726944 
	C454.892426,141.011749 455.009552,139.257278 455.193115,137.079483 
z"/>
<path fill="#D85601" opacity="1.000000" stroke="none" 
	d="
M446.903290,108.575012 
	C446.680267,107.791008 446.554047,106.615089 446.670441,105.229309 
	C446.942078,106.073990 446.971100,107.128548 446.903290,108.575012 
z"/>
<path fill="#DB5801" opacity="1.000000" stroke="none" 
	d="
M444.979645,117.669662 
	C444.813843,117.402733 444.756775,116.825142 444.952759,116.151794 
	C445.166656,116.490364 445.127533,116.924683 444.979645,117.669662 
z"/>
<path fill="#E15D05" opacity="1.000000" stroke="none" 
	d="
M188.391083,134.924927 
	C184.029037,134.744873 180.003891,134.371918 175.578690,133.997910 
	C175.178635,130.863739 175.178635,127.730614 175.178635,123.999367 
	C169.126373,123.999367 163.525177,123.999367 157.423050,123.618607 
	C156.514969,122.803734 156.107803,122.369629 155.700653,121.935524 
	C155.617538,120.585480 155.534424,119.235443 155.888840,117.294113 
	C157.059921,114.988548 157.793488,113.274269 158.654984,111.261040 
	C157.442200,111.145096 156.638763,111.068283 155.835312,110.991478 
	C157.296524,110.709831 158.757721,110.428185 160.634460,110.623215 
	C164.217499,114.247108 170.344360,113.808083 171.998367,110.315384 
	C172.447479,110.259895 172.896591,110.204407 173.677292,110.232475 
	C175.195969,111.210594 176.304260,112.726845 177.584152,112.889023 
	C182.392456,113.498291 187.256714,113.665894 192.468811,113.997719 
	C191.467743,120.908310 190.097870,127.820160 188.391083,134.924927 
z"/>
<path fill="#DF5A00" opacity="1.000000" stroke="none" 
	d="
M236.691162,124.544327 
	C235.089890,124.571198 233.514328,124.292282 232.082138,123.678734 
	C227.394577,121.670563 224.047729,122.957870 222.413544,127.698654 
	C221.168228,123.222527 220.167999,118.483902 219.405609,113.134720 
	C219.387253,111.673302 219.131088,110.822433 218.874924,109.971565 
	C218.874924,109.971565 218.641830,109.787514 218.677368,109.643585 
	C220.766846,105.714561 228.330353,104.398392 232.523575,107.067963 
	C233.608307,107.758530 234.761398,108.341759 236.240143,108.981689 
	C236.658981,114.021156 236.720764,119.053223 236.691162,124.544327 
z"/>
<path fill="#E15D05" opacity="1.000000" stroke="none" 
	d="
M204.788879,120.713783 
	C205.002182,118.553368 205.142334,116.825386 205.282486,115.097397 
	C205.747574,115.070061 206.212662,115.042725 206.677750,115.015388 
	C207.992996,124.159119 209.308258,133.302841 210.669235,142.764557 
	C207.744736,142.764557 205.013519,142.764557 201.617020,142.764557 
	C202.665329,135.450928 203.690521,128.298569 204.788879,120.713783 
z"/>
<path fill="#D85601" opacity="1.000000" stroke="none" 
	d="
M218.856293,110.348572 
	C219.131088,110.822433 219.387253,111.673302 219.425629,112.738525 
	C219.084457,112.210442 218.961075,111.468018 218.856293,110.348572 
z"/>
<path fill="#DB5801" opacity="1.000000" stroke="none" 
	d="
M171.546188,110.236115 
	C170.344360,113.808083 164.217499,114.247108 161.025940,110.708344 
	C164.365936,110.263481 167.729965,110.210175 171.546188,110.236115 
z"/>
<path fill="#DB5801" opacity="1.000000" stroke="none" 
	d="
M155.662079,111.399918 
	C156.638763,111.068283 157.442200,111.145096 158.654984,111.261040 
	C157.793488,113.274269 157.059921,114.988548 156.012527,116.904099 
	C155.628754,115.339699 155.558807,113.574036 155.662079,111.399918 
z"/>
<path fill="#DB5801" opacity="1.000000" stroke="none" 
	d="
M155.598938,122.305557 
	C156.107803,122.369629 156.514969,122.803734 156.959015,123.549988 
	C156.496353,123.466621 155.996811,123.071098 155.598938,122.305557 
z"/>
<path fill="#DB5801" opacity="1.000000" stroke="none" 
	d="
M303.150452,110.547653 
	C302.870758,111.001854 302.697571,111.002785 301.920410,110.857941 
	C300.684357,110.594513 300.050934,110.367172 299.420502,110.375282 
	C284.283264,110.569862 269.146332,110.789658 254.009369,111.004883 
	C254.006287,106.979927 254.003204,102.954971 254.002808,98.467316 
	C270.059631,98.003242 286.113770,98.001854 302.605530,98.000389 
	C303.114380,102.031670 303.185638,106.063026 303.150452,110.547653 
z"/>
<path fill="#E15D05" opacity="1.000000" stroke="none" 
	d="
M354.014191,130.605621 
	C351.462646,131.013824 348.767975,131.153839 346.073029,131.159409 
	C344.006714,131.163681 341.940063,130.998322 339.516968,130.952927 
	C339.065094,128.853867 338.969818,126.710274 338.849701,124.007942 
	C333.147980,124.007942 327.535156,124.007942 321.445435,123.701782 
	C320.837708,123.139153 320.706848,122.882690 320.576050,122.626244 
	C320.386292,122.994781 320.196564,123.363312 320.006836,123.731834 
	C319.776001,120.697205 319.545166,117.662582 319.881165,114.252045 
	C325.397736,113.584099 330.366547,113.457710 335.284393,112.889809 
	C336.602081,112.737648 337.764282,111.238861 338.997864,110.358276 
	C339.432648,110.257164 339.867462,110.156044 340.684967,110.352722 
	C341.661346,111.354126 342.363953,112.731873 342.831726,112.656281 
	C347.156342,111.957375 347.905365,115.190666 349.070099,118.018921 
	C350.670380,122.105797 352.270660,126.192680 354.014191,130.605621 
z"/>
<path fill="#DB5801" opacity="1.000000" stroke="none" 
	d="
M349.127441,117.573586 
	C347.905365,115.190666 347.156342,111.957375 342.831726,112.656281 
	C342.363953,112.731873 341.661346,111.354126 341.008301,110.262268 
	C340.940002,107.208229 340.931061,104.542435 341.007812,101.437820 
	C345.443512,101.593651 348.537994,103.545876 349.029236,108.718056 
	C349.089172,111.782608 349.136963,114.455429 349.127441,117.573586 
z"/>
<path fill="#DB5801" opacity="1.000000" stroke="none" 
	d="
M338.536804,110.274231 
	C337.764282,111.238861 336.602081,112.737648 335.284393,112.889809 
	C330.366547,113.457710 325.397736,113.584099 319.998993,113.872330 
	C319.505341,113.132164 319.460724,112.395790 319.829895,111.285522 
	C320.545135,110.801666 320.782898,110.611946 320.957031,110.342461 
	C326.663269,110.291710 332.369537,110.240952 338.536804,110.274231 
z"/>
<path fill="#DB5801" opacity="1.000000" stroke="none" 
	d="
M320.243652,123.845749 
	C320.196564,123.363312 320.386292,122.994781 320.576050,122.626244 
	C320.706848,122.882690 320.837708,123.139153 320.982330,123.626572 
	C320.824249,123.891563 320.652374,123.925606 320.243652,123.845749 
z"/>
<path fill="#E15D05" opacity="1.000000" stroke="none" 
	d="
M320.682861,110.284386 
	C320.782898,110.611946 320.545135,110.801666 320.016602,110.962578 
	C319.995941,110.751122 320.202301,110.488716 320.682861,110.284386 
z"/>
<path fill="#D85601" opacity="1.000000" stroke="none" 
	d="
M351.442688,102.938232 
	C350.573456,102.376457 349.991364,101.690231 349.409271,101.003998 
	C350.391602,100.679306 351.373962,100.354614 352.726501,100.048813 
	C352.641052,100.983055 352.185425,101.898415 351.442688,102.938232 
z"/>
<path fill="#D85601" opacity="1.000000" stroke="none" 
	d="
M353.311493,100.030319 
	C353.267944,99.825676 353.487061,99.543922 353.976074,99.203964 
	C354.022064,99.414909 353.798096,99.684059 353.311493,100.030319 
z"/>
<path fill="#E15D05" opacity="1.000000" stroke="none" 
	d="
M512.170166,110.982162 
	C511.976440,111.059242 511.587982,111.024895 511.393311,111.014557 
	C511.599243,110.723183 511.999878,110.442139 512.681335,110.251152 
	C512.821411,110.591339 512.622009,110.779297 512.170166,110.982162 
z"/>
<path fill="#F46302" opacity="1.000000" stroke="none" 
	d="
M494.745483,112.756287 
	C494.303436,112.809837 493.945862,112.625732 493.588318,112.441635 
	C493.834015,112.307671 494.079742,112.173698 494.549835,112.028503 
	C494.792786,112.184387 494.811371,112.351509 494.745483,112.756287 
z"/>
<path fill="#D85601" opacity="1.000000" stroke="none" 
	d="
M481.880615,106.741623 
	C481.728668,106.721710 481.634521,106.462166 481.682831,106.112358 
	C481.825317,106.022095 481.938416,106.501976 481.880615,106.741623 
z"/>
<path fill="#E5843F" opacity="1.000000" stroke="none" 
	d="
M424.727875,110.135574 
	C424.904205,110.514999 424.694702,110.717346 424.207153,110.931366 
	C424.003113,111.019684 423.553711,111.003716 423.329529,111.020416 
	C423.542236,110.703110 423.979156,110.369118 424.727875,110.135574 
z"/>
<path fill="#DF5A00" opacity="1.000000" stroke="none" 
	d="
M254.006348,111.472313 
	C269.146332,110.789658 284.283264,110.569862 299.420502,110.375282 
	C300.050934,110.367172 300.684357,110.594513 301.660645,110.858398 
	C302.003387,116.691917 302.001923,122.379196 301.999023,128.534760 
	C286.313477,129.002365 270.629364,129.001694 254.477783,129.002518 
	C254.007965,123.315926 254.005646,117.627831 254.006348,111.472313 
z"/>
</svg>